<?xml version="1.0" encoding="UTF-8" standalone="no" ?>
<!DOCTYPE svg PUBLIC "-//W3C//DTD SVG 1.1//EN" "http://www.w3.org/Graphics/SVG/1.1/DTD/svg11.dtd">
<svg xmlns="http://www.w3.org/2000/svg" xmlns:xlink="http://www.w3.org/1999/xlink" version="1.1" width="1080" height="1080" viewBox="0 0 1080 1080" xml:space="preserve">
<desc>Created with Fabric.js 4.2.0</desc>
<defs>
</defs>
<rect x="0" y="0" width="100%" height="100%" fill="transparent"></rect>
<g transform="matrix(1 0 0 1 540 540)" id="632a651f-b3c2-43e4-b0f5-eff840381ace"  >
<rect style="stroke: none; stroke-width: 1; stroke-dasharray: none; stroke-linecap: butt; stroke-dashoffset: 0; stroke-linejoin: miter; stroke-miterlimit: 4; fill: rgb(255,255,255); fill-rule: nonzero; opacity: 1;" vector-effect="non-scaling-stroke"  x="-540" y="-540" rx="0" ry="0" width="1080" height="1080" />
</g>
<g transform="matrix(Infinity NaN NaN Infinity 0 0)" id="0dd4e675-66ae-44fd-8faf-32021f0b3814"  >
</g>
<g transform="matrix(15.06 0 0 15.06 540 540)"  >
<g style="" vector-effect="non-scaling-stroke"   >
		<g transform="matrix(1 0 0 1 18.43 16.97)"  >
<polygon style="stroke: none; stroke-width: 1; stroke-dasharray: none; stroke-linecap: butt; stroke-dashoffset: 0; stroke-linejoin: miter; stroke-miterlimit: 4; fill: none; fill-rule: nonzero; opacity: 1;" vector-effect="non-scaling-stroke"  points="8.33,-7.4 3.56,-2.64 -2.67,-8.86 -9,-2.53 -2.78,3.65 -7.26,8.19 0.87,8.52 9,8.86 8.67,0.73 " />
</g>
		<g transform="matrix(1 0 0 1 -18.34 -17.36)"  >
<polygon style="stroke: none; stroke-width: 1; stroke-dasharray: none; stroke-linecap: butt; stroke-dashoffset: 0; stroke-linejoin: miter; stroke-miterlimit: 4; fill: none; fill-rule: nonzero; opacity: 1;" vector-effect="non-scaling-stroke"  points="7.29,-8.19 -0.84,-8.52 -8.97,-8.86 -8.64,-0.73 -8.36,7.4 -3.53,2.64 2.69,8.86 8.97,2.52 2.75,-3.7 " />
</g>
		<g transform="matrix(1 0 0 1 0 0)"  >
<path style="stroke: none; stroke-width: 1; stroke-dasharray: none; stroke-linecap: butt; stroke-dashoffset: 0; stroke-linejoin: miter; stroke-miterlimit: 4; fill: rgb(101,101,101); fill-rule: nonzero; opacity: 1;" vector-effect="non-scaling-stroke"  transform=" translate(-50, -50)" d="M 14.779 14.75 L 14.779 85.25 L 85.219 85.25 L 85.219 14.75 L 14.779 14.75 z M 38.953 75.153 L 30.818000000000005 75.489 L 22.688000000000002 75.82900000000001 L 23.024 67.694 L 23.304000000000002 59.564 L 28.129 64.329 L 34.355000000000004 58.102999999999994 L 40.634 64.44 L 34.409 70.612 L 38.953 75.153 z M 34.354 41.503 L 28.128 35.277 L 23.303 40.046 L 23.023 31.914 L 22.687 23.782000000000004 L 30.817 24.118000000000002 L 38.952 24.454 L 34.408 28.94 L 40.633 35.166000000000004 L 34.354 41.503 z M 69.295 75.489 L 61.160000000000004 75.153 L 65.647 70.61200000000001 L 59.42100000000001 64.44000000000001 L 65.75800000000001 58.10300000000001 L 71.98400000000001 64.32900000000001 L 76.75300000000001 59.56400000000001 L 77.09000000000002 67.694 L 77.42600000000002 75.82900000000001 L 69.295 75.489 z M 77.09 31.914 L 76.753 40.046 L 71.984 35.277 L 65.758 41.503 L 59.42099999999999 35.166 L 65.64699999999999 28.939999999999998 L 61.15999999999999 24.453999999999997 L 69.29499999999999 24.118 L 77.42599999999999 23.782 L 77.09 31.914 z" stroke-linecap="round" />
</g>
</g>
</g>
<g transform="matrix(4.68 0 0 4.68 510.48 555.63)" style="" id="694a4fc8-5d6d-417e-95cf-d40be7b6f3ce"  >
		<text xml:space="preserve" font-family="Roboto" font-size="105" font-style="normal" font-weight="900" style="stroke: none; stroke-width: 1; stroke-dasharray: none; stroke-linecap: butt; stroke-dashoffset: 0; stroke-linejoin: miter; stroke-miterlimit: 4; fill: rgb(255,255,255); fill-rule: nonzero; opacity: 1; white-space: pre;" ><tspan x="-33.86" y="32.98" >B</tspan></text>
</g>
</svg>